<svg width="1280" height="720" viewBox="0 0 1280 720" xmlns="http://www.w3.org/2000/svg">
  <rect width="1280" height="720" fill="#050b0b"/>
  <text x="40" y="52" fill="#d2e0e0" font-family="Segoe UI, Arial" font-size="30" font-weight="700">PULSE LLMOps</text>
  <rect x="1080" y="26" rx="12" ry="12" width="140" height="34" fill="#072f27" stroke="#00d4aa"/>
  <text x="1131" y="49" fill="#00d4aa" font-family="Consolas, monospace" font-size="16">LIVE</text>

  <g font-family="Consolas, monospace">
    <rect x="36" y="88" width="294" height="94" rx="8" fill="#0b1515" stroke="#1a3d3d"/><text x="52" y="114" fill="#7c9c9c" font-size="14">TOTAL CALLS</text><text x="52" y="157" fill="#00d4aa" font-size="34">9</text>
    <rect x="344" y="88" width="294" height="94" rx="8" fill="#0b1515" stroke="#1a3d3d"/><text x="360" y="114" fill="#7c9c9c" font-size="14">ERROR RATE %</text><text x="360" y="157" fill="#00d4aa" font-size="34">0.0</text>
    <rect x="652" y="88" width="294" height="94" rx="8" fill="#0b1515" stroke="#1a3d3d"/><text x="668" y="114" fill="#7c9c9c" font-size="14">AVG LATENCY ms</text><text x="668" y="157" fill="#00d4aa" font-size="34">731</text>
    <rect x="960" y="88" width="284" height="94" rx="8" fill="#0b1515" stroke="#1a3d3d"/><text x="976" y="114" fill="#7c9c9c" font-size="14">TOTAL COST USD</text><text x="976" y="157" fill="#00d4aa" font-size="34">$0.0005</text>
  </g>

  <rect x="36" y="200" width="602" height="220" rx="8" fill="#0b1515" stroke="#1a3d3d"/>
  <text x="54" y="226" fill="#cfe3e3" font-family="Consolas, monospace" font-size="14">Latency Trend</text>
  <polyline points="58,380 130,350 210,360 290,300 360,320 440,270 520,295 610,250" fill="none" stroke="#00d4aa" stroke-width="3"/>

  <rect x="652" y="200" width="592" height="220" rx="8" fill="#0b1515" stroke="#1a3d3d"/>
  <text x="670" y="226" fill="#cfe3e3" font-family="Consolas, monospace" font-size="14">Token Trend</text>
  <polyline points="674,372 748,355 826,330 902,340 980,300 1060,290 1140,240 1224,220" fill="none" stroke="#6da8ff" stroke-width="3"/>

  <rect x="36" y="438" width="780" height="246" rx="8" fill="#0b1515" stroke="#1a3d3d"/>
  <text x="54" y="464" fill="#cfe3e3" font-family="Consolas, monospace" font-size="14">Recent Calls</text>
  <text x="54" y="496" fill="#7c9c9c" font-family="Consolas, monospace" font-size="13">ID        MODEL                    LATENCY    TOKENS    STATUS</text>
  <text x="54" y="526" fill="#d2e0e0" font-family="Consolas, monospace" font-size="13">#9        llama-3.1-8b-instant     356ms      162       OK</text>
  <text x="54" y="554" fill="#d2e0e0" font-family="Consolas, monospace" font-size="13">#8        llama-3.1-8b-instant     759ms      185       OK</text>
  <text x="54" y="582" fill="#d2e0e0" font-family="Consolas, monospace" font-size="13">#7        llama-3.1-8b-instant     494ms      191       OK</text>

  <rect x="832" y="438" width="412" height="246" rx="8" fill="#0b1515" stroke="#1a3d3d"/>
  <text x="850" y="464" fill="#cfe3e3" font-family="Consolas, monospace" font-size="14">Alerts / Model Breakdown</text>
  <rect x="850" y="488" width="376" height="42" rx="6" fill="#0e271f" stroke="#175842"/>
  <text x="868" y="514" fill="#63e7c6" font-family="Consolas, monospace" font-size="13">No active alerts</text>
  <text x="850" y="560" fill="#d2e0e0" font-family="Consolas, monospace" font-size="13">llama-3.1-8b-instant: 9 calls</text>
  <text x="850" y="586" fill="#7c9c9c" font-family="Consolas, monospace" font-size="13">avg latency 731ms</text>
</svg>
